<mxfile host="app.diagrams.net" agent="Mozilla/5.0 (Windows NT 10.0; Win64; x64) AppleWebKit/537.36 (KHTML, like Gecko) Chrome/136.0.0.0 Safari/537.36" version="27.0.6">
  <diagram name="Страница — 1" id="UJoL0vOzKduTmryrViGd">
    <mxGraphModel dx="983" dy="512" grid="1" gridSize="10" guides="1" tooltips="1" connect="1" arrows="1" fold="1" page="1" pageScale="1" pageWidth="827" pageHeight="1169" math="0" shadow="0">
      <root>
        <mxCell id="0" />
        <mxCell id="1" parent="0" />
        <mxCell id="LDYFWR713bbLO3M45Qnb-19" style="rounded=0;orthogonalLoop=1;jettySize=auto;html=1;endArrow=none;startFill=0;" edge="1" parent="1" source="LDYFWR713bbLO3M45Qnb-1" target="LDYFWR713bbLO3M45Qnb-18">
          <mxGeometry relative="1" as="geometry" />
        </mxCell>
        <mxCell id="LDYFWR713bbLO3M45Qnb-30" style="edgeStyle=orthogonalEdgeStyle;rounded=0;orthogonalLoop=1;jettySize=auto;html=1;endArrow=block;endFill=0;" edge="1" parent="1" source="LDYFWR713bbLO3M45Qnb-1">
          <mxGeometry relative="1" as="geometry">
            <mxPoint x="80" y="230" as="targetPoint" />
            <Array as="points">
              <mxPoint x="30" y="100" />
              <mxPoint x="30" y="230" />
            </Array>
          </mxGeometry>
        </mxCell>
        <mxCell id="LDYFWR713bbLO3M45Qnb-1" value="Зарегистрированный&amp;nbsp;&lt;div&gt;Врач&lt;/div&gt;" style="shape=umlActor;verticalLabelPosition=bottom;verticalAlign=top;html=1;outlineConnect=0;" vertex="1" parent="1">
          <mxGeometry x="80" y="70" width="30" height="60" as="geometry" />
        </mxCell>
        <mxCell id="LDYFWR713bbLO3M45Qnb-20" style="rounded=0;orthogonalLoop=1;jettySize=auto;html=1;endArrow=none;startFill=0;" edge="1" parent="1" source="LDYFWR713bbLO3M45Qnb-3" target="LDYFWR713bbLO3M45Qnb-17">
          <mxGeometry relative="1" as="geometry" />
        </mxCell>
        <mxCell id="LDYFWR713bbLO3M45Qnb-3" value="Не зарегистрированный&amp;nbsp;&lt;div&gt;Врач&lt;/div&gt;" style="shape=umlActor;verticalLabelPosition=bottom;verticalAlign=top;html=1;outlineConnect=0;" vertex="1" parent="1">
          <mxGeometry x="80" y="360" width="30" height="60" as="geometry" />
        </mxCell>
        <mxCell id="LDYFWR713bbLO3M45Qnb-6" value="Заполнить/редактировать анкету" style="ellipse;whiteSpace=wrap;html=1;" vertex="1" parent="1">
          <mxGeometry x="190" y="135" width="120" height="50" as="geometry" />
        </mxCell>
        <mxCell id="LDYFWR713bbLO3M45Qnb-12" style="edgeStyle=orthogonalEdgeStyle;rounded=0;orthogonalLoop=1;jettySize=auto;html=1;entryX=1;entryY=0.5;entryDx=0;entryDy=0;dashed=1;" edge="1" parent="1" source="LDYFWR713bbLO3M45Qnb-11" target="LDYFWR713bbLO3M45Qnb-6">
          <mxGeometry relative="1" as="geometry" />
        </mxCell>
        <mxCell id="LDYFWR713bbLO3M45Qnb-11" value="сделать прогноз" style="ellipse;whiteSpace=wrap;html=1;" vertex="1" parent="1">
          <mxGeometry x="370" y="145" width="130" height="30" as="geometry" />
        </mxCell>
        <mxCell id="LDYFWR713bbLO3M45Qnb-13" value="&quot;extend&quot;" style="text;html=1;align=center;verticalAlign=middle;resizable=0;points=[];autosize=1;strokeColor=none;fillColor=none;" vertex="1" parent="1">
          <mxGeometry x="310" y="130" width="70" height="30" as="geometry" />
        </mxCell>
        <mxCell id="LDYFWR713bbLO3M45Qnb-14" value="Просмотреть заполненные&amp;nbsp;&lt;div&gt;анкеты&lt;/div&gt;" style="ellipse;whiteSpace=wrap;html=1;" vertex="1" parent="1">
          <mxGeometry x="190" y="190" width="120" height="60" as="geometry" />
        </mxCell>
        <mxCell id="LDYFWR713bbLO3M45Qnb-15" value="Использовать подсказку" style="ellipse;whiteSpace=wrap;html=1;" vertex="1" parent="1">
          <mxGeometry x="190" y="260" width="120" height="40" as="geometry" />
        </mxCell>
        <mxCell id="LDYFWR713bbLO3M45Qnb-16" value="Обновить алгоритм прогнозирования" style="ellipse;whiteSpace=wrap;html=1;" vertex="1" parent="1">
          <mxGeometry x="190" y="310" width="120" height="50" as="geometry" />
        </mxCell>
        <mxCell id="LDYFWR713bbLO3M45Qnb-17" value="Регистрация" style="ellipse;whiteSpace=wrap;html=1;" vertex="1" parent="1">
          <mxGeometry x="180" y="470" width="120" height="40" as="geometry" />
        </mxCell>
        <mxCell id="LDYFWR713bbLO3M45Qnb-18" value="Отправить данные в систему" style="ellipse;whiteSpace=wrap;html=1;" vertex="1" parent="1">
          <mxGeometry x="190" y="20" width="120" height="50" as="geometry" />
        </mxCell>
        <mxCell id="LDYFWR713bbLO3M45Qnb-31" style="rounded=0;orthogonalLoop=1;jettySize=auto;html=1;entryX=0;entryY=0.5;entryDx=0;entryDy=0;endArrow=none;startFill=0;" edge="1" parent="1" source="LDYFWR713bbLO3M45Qnb-26" target="LDYFWR713bbLO3M45Qnb-6">
          <mxGeometry relative="1" as="geometry" />
        </mxCell>
        <mxCell id="LDYFWR713bbLO3M45Qnb-33" style="rounded=0;orthogonalLoop=1;jettySize=auto;html=1;entryX=0;entryY=0.5;entryDx=0;entryDy=0;endArrow=none;startFill=0;" edge="1" parent="1" source="LDYFWR713bbLO3M45Qnb-26" target="LDYFWR713bbLO3M45Qnb-15">
          <mxGeometry relative="1" as="geometry" />
        </mxCell>
        <mxCell id="LDYFWR713bbLO3M45Qnb-34" style="rounded=0;orthogonalLoop=1;jettySize=auto;html=1;entryX=0;entryY=0.5;entryDx=0;entryDy=0;endArrow=none;startFill=0;" edge="1" parent="1" source="LDYFWR713bbLO3M45Qnb-26" target="LDYFWR713bbLO3M45Qnb-16">
          <mxGeometry relative="1" as="geometry" />
        </mxCell>
        <mxCell id="LDYFWR713bbLO3M45Qnb-26" value="Пользователь" style="shape=umlActor;verticalLabelPosition=bottom;verticalAlign=top;html=1;outlineConnect=0;" vertex="1" parent="1">
          <mxGeometry x="80" y="210" width="30" height="60" as="geometry" />
        </mxCell>
        <mxCell id="LDYFWR713bbLO3M45Qnb-29" style="edgeStyle=orthogonalEdgeStyle;rounded=0;orthogonalLoop=1;jettySize=auto;html=1;entryX=0;entryY=0.3333333333333333;entryDx=0;entryDy=0;entryPerimeter=0;endArrow=block;endFill=0;" edge="1" parent="1" source="LDYFWR713bbLO3M45Qnb-3" target="LDYFWR713bbLO3M45Qnb-26">
          <mxGeometry relative="1" as="geometry">
            <Array as="points">
              <mxPoint x="50" y="390" />
              <mxPoint x="50" y="230" />
            </Array>
          </mxGeometry>
        </mxCell>
        <mxCell id="LDYFWR713bbLO3M45Qnb-32" style="rounded=0;orthogonalLoop=1;jettySize=auto;html=1;entryX=0.035;entryY=0.569;entryDx=0;entryDy=0;entryPerimeter=0;endArrow=none;startFill=0;" edge="1" parent="1" source="LDYFWR713bbLO3M45Qnb-26" target="LDYFWR713bbLO3M45Qnb-14">
          <mxGeometry relative="1" as="geometry" />
        </mxCell>
      </root>
    </mxGraphModel>
  </diagram>
</mxfile>
